<svg width="219" height="40" viewBox="0 0 219 40" fill="none" xmlns="http://www.w3.org/2000/svg">
<path d="M10.592 30.252C7.64 30.252 5.216 29.556 3.32 28.164C1.424 26.748 0.404 24.732 0.26 22.116H7.784C7.856 23.004 8.12 23.652 8.576 24.06C9.032 24.468 9.62 24.672 10.34 24.672C10.988 24.672 11.516 24.516 11.924 24.204C12.356 23.868 12.572 23.412 12.572 22.836C12.572 22.092 12.224 21.516 11.528 21.108C10.832 20.7 9.704 20.244 8.144 19.74C6.488 19.188 5.144 18.66 4.112 18.156C3.104 17.628 2.216 16.872 1.448 15.888C0.704 14.88 0.332 13.572 0.332 11.964C0.332 10.332 0.74 8.94 1.556 7.788C2.372 6.612 3.5 5.724 4.94 5.124C6.38 4.524 8.012 4.224 9.836 4.224C12.788 4.224 15.14 4.92 16.892 6.312C18.668 7.68 19.616 9.612 19.736 12.108H12.068C12.044 11.34 11.804 10.764 11.348 10.38C10.916 9.996 10.352 9.804 9.656 9.804C9.128 9.804 8.696 9.96 8.36 10.272C8.024 10.584 7.856 11.028 7.856 11.604C7.856 12.084 8.036 12.504 8.396 12.864C8.78 13.2 9.248 13.5 9.8 13.764C10.352 14.004 11.168 14.316 12.248 14.7C13.856 15.252 15.176 15.804 16.208 16.356C17.264 16.884 18.164 17.64 18.908 18.624C19.676 19.584 20.06 20.808 20.06 22.296C20.06 23.808 19.676 25.164 18.908 26.364C18.164 27.564 17.072 28.512 15.632 29.208C14.216 29.904 12.536 30.252 10.592 30.252ZM26.9042 7.932C25.6562 7.932 24.6482 7.596 23.8802 6.924C23.1362 6.228 22.7642 5.364 22.7642 4.332C22.7642 3.276 23.1362 2.4 23.8802 1.704C24.6482 1.008 25.6562 0.659998 26.9042 0.659998C28.1282 0.659998 29.1122 1.008 29.8562 1.704C30.6242 2.4 31.0082 3.276 31.0082 4.332C31.0082 5.364 30.6242 6.228 29.8562 6.924C29.1122 7.596 28.1282 7.932 26.9042 7.932ZM30.3962 9.804V30H23.3402V9.804H30.3962ZM60.8024 9.624C63.3464 9.624 65.3384 10.392 66.7784 11.928C68.2424 13.464 68.9744 15.564 68.9744 18.228V30H61.9184V19.164C61.9184 18.084 61.6184 17.244 61.0184 16.644C60.4184 16.044 59.6024 15.744 58.5704 15.744C57.5384 15.744 56.7224 16.044 56.1224 16.644C55.5224 17.244 55.2224 18.084 55.2224 19.164V30H48.1664V19.164C48.1664 18.084 47.8664 17.244 47.2664 16.644C46.6904 16.044 45.8864 15.744 44.8544 15.744C43.7984 15.744 42.9704 16.044 42.3704 16.644C41.7704 17.244 41.4704 18.084 41.4704 19.164V30H34.4144V9.804H41.4704V12.468C42.0944 11.604 42.8984 10.92 43.8824 10.416C44.8904 9.888 46.0424 9.624 47.3384 9.624C48.8264 9.624 50.1464 9.948 51.2984 10.596C52.4744 11.244 53.3984 12.156 54.0704 13.332C54.7904 12.228 55.7384 11.34 56.9144 10.668C58.0904 9.972 59.3864 9.624 60.8024 9.624ZM79.8962 12.612C80.4482 11.676 81.2282 10.932 82.2362 10.38C83.2442 9.828 84.4322 9.552 85.8002 9.552C87.4082 9.552 88.8602 9.972 90.1562 10.812C91.4762 11.652 92.5082 12.852 93.2522 14.412C94.0202 15.972 94.4042 17.796 94.4042 19.884C94.4042 21.972 94.0202 23.808 93.2522 25.392C92.5082 26.952 91.4762 28.152 90.1562 28.992C88.8602 29.832 87.4082 30.252 85.8002 30.252C84.4322 30.252 83.2442 29.976 82.2362 29.424C81.2522 28.872 80.4722 28.128 79.8962 27.192V39.648H72.8402V9.804H79.8962V12.612ZM87.2402 19.884C87.2402 18.564 86.8802 17.544 86.1602 16.824C85.4642 16.08 84.6002 15.708 83.5682 15.708C82.5362 15.708 81.6602 16.08 80.9402 16.824C80.2442 17.568 79.8962 18.588 79.8962 19.884C79.8962 21.204 80.2442 22.236 80.9402 22.98C81.6602 23.724 82.5362 24.096 83.5682 24.096C84.6002 24.096 85.4642 23.724 86.1602 22.98C86.8802 22.212 87.2402 21.18 87.2402 19.884ZM104.365 3.36V30H97.309V3.36H104.365ZM127.679 19.668C127.679 20.22 127.643 20.772 127.571 21.324H114.215C114.287 22.428 114.587 23.256 115.115 23.808C115.667 24.336 116.363 24.6 117.203 24.6C118.379 24.6 119.219 24.072 119.723 23.016H127.247C126.935 24.408 126.323 25.656 125.411 26.76C124.523 27.84 123.395 28.692 122.027 29.316C120.659 29.94 119.147 30.252 117.491 30.252C115.499 30.252 113.723 29.832 112.163 28.992C110.627 28.152 109.415 26.952 108.527 25.392C107.663 23.832 107.231 21.996 107.231 19.884C107.231 17.772 107.663 15.948 108.527 14.412C109.391 12.852 110.591 11.652 112.127 10.812C113.687 9.972 115.475 9.552 117.491 9.552C119.483 9.552 121.247 9.96 122.783 10.776C124.319 11.592 125.519 12.768 126.383 14.304C127.247 15.816 127.679 17.604 127.679 19.668ZM120.479 17.904C120.479 17.04 120.191 16.368 119.615 15.888C119.039 15.384 118.319 15.132 117.455 15.132C116.591 15.132 115.883 15.372 115.331 15.852C114.779 16.308 114.419 16.992 114.251 17.904H120.479Z" fill="black"/>
<path d="M149.683 4.62V10.236H142.915V30H135.859V10.236H129.163V4.62H149.683ZM151.141 19.884C151.141 17.796 151.513 15.972 152.257 14.412C153.025 12.852 154.057 11.652 155.353 10.812C156.673 9.972 158.137 9.552 159.745 9.552C161.137 9.552 162.337 9.828 163.345 10.38C164.353 10.932 165.133 11.676 165.685 12.612V9.804H172.741V30H165.685V27.192C165.133 28.128 164.341 28.872 163.309 29.424C162.301 29.976 161.113 30.252 159.745 30.252C158.137 30.252 156.673 29.832 155.353 28.992C154.057 28.152 153.025 26.952 152.257 25.392C151.513 23.808 151.141 21.972 151.141 19.884ZM165.685 19.884C165.685 18.588 165.325 17.568 164.605 16.824C163.909 16.08 163.045 15.708 162.013 15.708C160.957 15.708 160.081 16.08 159.385 16.824C158.689 17.544 158.341 18.564 158.341 19.884C158.341 21.18 158.689 22.212 159.385 22.98C160.081 23.724 160.957 24.096 162.013 24.096C163.045 24.096 163.909 23.724 164.605 22.98C165.325 22.236 165.685 21.204 165.685 19.884ZM185.366 30.252C183.542 30.252 181.91 29.952 180.47 29.352C179.054 28.728 177.926 27.888 177.086 26.832C176.27 25.752 175.814 24.54 175.718 23.196H182.558C182.654 23.844 182.954 24.348 183.458 24.708C183.962 25.068 184.586 25.248 185.33 25.248C185.906 25.248 186.362 25.128 186.698 24.888C187.034 24.648 187.202 24.336 187.202 23.952C187.202 23.448 186.926 23.076 186.374 22.836C185.822 22.596 184.91 22.332 183.638 22.044C182.198 21.756 180.998 21.432 180.038 21.072C179.078 20.712 178.238 20.124 177.518 19.308C176.822 18.492 176.474 17.388 176.474 15.996C176.474 14.796 176.798 13.716 177.446 12.756C178.094 11.772 179.042 10.992 180.29 10.416C181.562 9.84 183.086 9.552 184.862 9.552C187.502 9.552 189.578 10.2 191.09 11.496C192.602 12.792 193.478 14.496 193.718 16.608H187.346C187.226 15.96 186.938 15.468 186.482 15.132C186.05 14.772 185.462 14.592 184.718 14.592C184.142 14.592 183.698 14.7 183.386 14.916C183.098 15.132 182.954 15.432 182.954 15.816C182.954 16.296 183.23 16.668 183.782 16.932C184.334 17.172 185.222 17.424 186.446 17.688C187.91 18 189.122 18.348 190.082 18.732C191.066 19.116 191.918 19.74 192.638 20.604C193.382 21.444 193.754 22.596 193.754 24.06C193.754 25.236 193.406 26.292 192.71 27.228C192.038 28.164 191.066 28.908 189.794 29.46C188.546 29.988 187.07 30.252 185.366 30.252ZM209.859 30L204.279 21.72V30H197.223V3.36H204.279V17.724L209.859 9.804H218.319L210.363 19.956L218.463 30H209.859Z" fill="#3C79F5"/>
</svg>
