<?xml version="1.0" standalone="no"?>
<!DOCTYPE svg PUBLIC "-//W3C//DTD SVG 20010904//EN"
 "http://www.w3.org/TR/2001/REC-SVG-20010904/DTD/svg10.dtd">
<svg version="1.0" xmlns="http://www.w3.org/2000/svg"
 width="700.000000pt" height="700.000000pt" viewBox="0 0 700.000000 700.000000"
 preserveAspectRatio="xMidYMid meet">
<metadata>
Created by potrace 1.14, written by Peter Selinger 2001-2017
</metadata>
<g transform="translate(0.000000,700.000000) scale(0.100000,-0.100000)"
fill="#000000" stroke="none">
<path d="M3367 6994 c-1 -1 -51 -5 -112 -8 -60 -4 -119 -9 -130 -11 -11 -3
-42 -7 -70 -10 -27 -2 -61 -7 -75 -9 -14 -3 -41 -7 -60 -10 -119 -18 -353 -76
-495 -124 -44 -14 -82 -27 -85 -28 -7 -1 -42 -14 -65 -24 -11 -5 -60 -25 -110
-45 -621 -252 -1187 -722 -1567 -1300 -287 -437 -479 -950 -544 -1450 -3 -27
-8 -61 -10 -75 -23 -176 -23 -590 1 -780 2 -19 7 -60 11 -90 3 -30 7 -57 9
-60 2 -3 6 -26 10 -50 49 -355 231 -847 441 -1196 45 -75 191 -294 203 -304 3
-3 26 -32 51 -65 114 -154 349 -393 530 -542 555 -453 1255 -732 1960 -779
133 -9 343 -10 485 -1 143 8 173 12 420 53 57 10 310 74 375 95 36 11 72 22
80 24 30 6 298 114 385 156 257 122 586 334 763 492 115 103 230 216 352 346
69 74 241 301 322 426 250 386 430 857 507 1325 36 218 45 362 44 680 0 242
-1 246 -28 320 -60 165 -183 277 -351 321 -89 23 -192 21 -274 -5 -123 -40
-230 -126 -291 -235 -57 -102 -61 -128 -65 -381 -4 -313 -8 -375 -40 -560 -22
-131 -23 -137 -53 -244 -81 -288 -218 -567 -394 -805 -88 -119 -107 -141 -247
-282 -414 -417 -946 -662 -1548 -715 -133 -11 -408 -5 -492 12 -14 2 -45 6
-69 9 -123 13 -332 68 -526 140 -173 64 -440 211 -585 322 -472 362 -786 839
-925 1404 -92 374 -90 822 6 1184 6 22 12 47 14 56 7 35 76 229 110 309 275
646 819 1148 1485 1373 83 28 245 72 300 81 19 3 46 8 60 11 32 7 81 13 150
20 30 4 73 8 95 11 91 11 397 4 470 -10 12 -2 48 -7 80 -11 33 -4 76 -11 95
-15 19 -5 51 -12 70 -15 41 -7 115 -27 220 -60 79 -25 126 -43 251 -93 42 -17
96 -34 120 -38 256 -42 491 101 575 348 26 78 24 234 -4 311 -38 105 -107 195
-196 256 -120 83 -569 236 -821 281 -33 5 -70 12 -81 14 -65 13 -225 33 -329
42 -75 6 -402 13 -408 8z"/>
<path d="M6389 6389 c-58 -13 -138 -47 -185 -80 -25 -17 -640 -627 -1369
-1357 l-1324 -1327 -303 300 c-316 313 -334 327 -457 364 -170 52 -366 -1
-496 -135 -104 -107 -146 -217 -141 -372 3 -104 26 -178 80 -258 14 -22 247
-260 517 -531 427 -427 500 -496 558 -527 82 -43 133 -56 224 -60 91 -5 192
20 269 65 43 26 436 413 1587 1564 842 843 1545 1554 1565 1584 123 182 100
450 -52 614 -96 102 -216 157 -352 161 -47 2 -101 -1 -121 -5z"/>
</g>
</svg>
